<?xml version="1.0"?><svg xmlns="http://www.w3.org/2000/svg" version="1.1" width="507" height="507" viewBox="0 0 338 371.8"><g><rect x="0" y="0" width="338" height="338" fill="white"/><g transform="translate(2 2) scale(9 9)"><rect x="4" y="4" width="1" height="1" fill="url(#black)"/><rect x="5" y="4" width="1" height="1" fill="url(#black)"/><rect x="6" y="4" width="1" height="1" fill="url(#black)"/><rect x="7" y="4" width="1" height="1" fill="url(#black)"/><rect x="8" y="4" width="1" height="1" fill="url(#black)"/><rect x="9" y="4" width="1" height="1" fill="url(#black)"/><rect x="10" y="4" width="1" height="1" fill="url(#black)"/><rect x="13" y="4" width="1" height="1" fill="url(#black)"/><rect x="16" y="4" width="1" height="1" fill="url(#black)"/><rect x="19" y="4" width="1" height="1" fill="url(#black)"/><rect x="20" y="4" width="1" height="1" fill="url(#black)"/><rect x="22" y="4" width="1" height="1" fill="url(#black)"/><rect x="23" y="4" width="1" height="1" fill="url(#black)"/><rect x="26" y="4" width="1" height="1" fill="url(#black)"/><rect x="27" y="4" width="1" height="1" fill="url(#black)"/><rect x="28" y="4" width="1" height="1" fill="url(#black)"/><rect x="29" y="4" width="1" height="1" fill="url(#black)"/><rect x="30" y="4" width="1" height="1" fill="url(#black)"/><rect x="31" y="4" width="1" height="1" fill="url(#black)"/><rect x="32" y="4" width="1" height="1" fill="url(#black)"/><rect x="4" y="5" width="1" height="1" fill="url(#black)"/><rect x="10" y="5" width="1" height="1" fill="url(#black)"/><rect x="12" y="5" width="1" height="1" fill="url(#black)"/><rect x="15" y="5" width="1" height="1" fill="url(#black)"/><rect x="16" y="5" width="1" height="1" fill="url(#black)"/><rect x="17" y="5" width="1" height="1" fill="url(#black)"/><rect x="18" y="5" width="1" height="1" fill="url(#black)"/><rect x="19" y="5" width="1" height="1" fill="url(#black)"/><rect x="22" y="5" width="1" height="1" fill="url(#black)"/><rect x="26" y="5" width="1" height="1" fill="url(#black)"/><rect x="32" y="5" width="1" height="1" fill="url(#black)"/><rect x="4" y="6" width="1" height="1" fill="url(#black)"/><rect x="6" y="6" width="1" height="1" fill="url(#black)"/><rect x="7" y="6" width="1" height="1" fill="url(#black)"/><rect x="8" y="6" width="1" height="1" fill="url(#black)"/><rect x="10" y="6" width="1" height="1" fill="url(#black)"/><rect x="12" y="6" width="1" height="1" fill="url(#black)"/><rect x="13" y="6" width="1" height="1" fill="url(#black)"/><rect x="14" y="6" width="1" height="1" fill="url(#black)"/><rect x="15" y="6" width="1" height="1" fill="url(#black)"/><rect x="16" y="6" width="1" height="1" fill="url(#black)"/><rect x="18" y="6" width="1" height="1" fill="url(#black)"/><rect x="21" y="6" width="1" height="1" fill="url(#black)"/><rect x="22" y="6" width="1" height="1" fill="url(#black)"/><rect x="23" y="6" width="1" height="1" fill="url(#black)"/><rect x="24" y="6" width="1" height="1" fill="url(#black)"/><rect x="26" y="6" width="1" height="1" fill="url(#black)"/><rect x="28" y="6" width="1" height="1" fill="url(#black)"/><rect x="29" y="6" width="1" height="1" fill="url(#black)"/><rect x="30" y="6" width="1" height="1" fill="url(#black)"/><rect x="32" y="6" width="1" height="1" fill="url(#black)"/><rect x="4" y="7" width="1" height="1" fill="url(#black)"/><rect x="6" y="7" width="1" height="1" fill="url(#black)"/><rect x="7" y="7" width="1" height="1" fill="url(#black)"/><rect x="8" y="7" width="1" height="1" fill="url(#black)"/><rect x="10" y="7" width="1" height="1" fill="url(#black)"/><rect x="13" y="7" width="1" height="1" fill="url(#black)"/><rect x="14" y="7" width="1" height="1" fill="url(#black)"/><rect x="15" y="7" width="1" height="1" fill="url(#black)"/><rect x="19" y="7" width="1" height="1" fill="url(#black)"/><rect x="20" y="7" width="1" height="1" fill="url(#black)"/><rect x="22" y="7" width="1" height="1" fill="url(#black)"/><rect x="26" y="7" width="1" height="1" fill="url(#black)"/><rect x="28" y="7" width="1" height="1" fill="url(#black)"/><rect x="29" y="7" width="1" height="1" fill="url(#black)"/><rect x="30" y="7" width="1" height="1" fill="url(#black)"/><rect x="32" y="7" width="1" height="1" fill="url(#black)"/><rect x="4" y="8" width="1" height="1" fill="url(#black)"/><rect x="6" y="8" width="1" height="1" fill="url(#black)"/><rect x="7" y="8" width="1" height="1" fill="url(#black)"/><rect x="8" y="8" width="1" height="1" fill="url(#black)"/><rect x="10" y="8" width="1" height="1" fill="url(#black)"/><rect x="12" y="8" width="1" height="1" fill="url(#black)"/><rect x="17" y="8" width="1" height="1" fill="url(#black)"/><rect x="19" y="8" width="1" height="1" fill="url(#black)"/><rect x="21" y="8" width="1" height="1" fill="url(#black)"/><rect x="22" y="8" width="1" height="1" fill="url(#black)"/><rect x="26" y="8" width="1" height="1" fill="url(#black)"/><rect x="28" y="8" width="1" height="1" fill="url(#black)"/><rect x="29" y="8" width="1" height="1" fill="url(#black)"/><rect x="30" y="8" width="1" height="1" fill="url(#black)"/><rect x="32" y="8" width="1" height="1" fill="url(#black)"/><rect x="4" y="9" width="1" height="1" fill="url(#black)"/><rect x="10" y="9" width="1" height="1" fill="url(#black)"/><rect x="12" y="9" width="1" height="1" fill="url(#black)"/><rect x="13" y="9" width="1" height="1" fill="url(#black)"/><rect x="15" y="9" width="1" height="1" fill="url(#black)"/><rect x="17" y="9" width="1" height="1" fill="url(#black)"/><rect x="18" y="9" width="1" height="1" fill="url(#black)"/><rect x="19" y="9" width="1" height="1" fill="url(#black)"/><rect x="20" y="9" width="1" height="1" fill="url(#black)"/><rect x="22" y="9" width="1" height="1" fill="url(#black)"/><rect x="23" y="9" width="1" height="1" fill="url(#black)"/><rect x="26" y="9" width="1" height="1" fill="url(#black)"/><rect x="32" y="9" width="1" height="1" fill="url(#black)"/><rect x="4" y="10" width="1" height="1" fill="url(#black)"/><rect x="5" y="10" width="1" height="1" fill="url(#black)"/><rect x="6" y="10" width="1" height="1" fill="url(#black)"/><rect x="7" y="10" width="1" height="1" fill="url(#black)"/><rect x="8" y="10" width="1" height="1" fill="url(#black)"/><rect x="9" y="10" width="1" height="1" fill="url(#black)"/><rect x="10" y="10" width="1" height="1" fill="url(#black)"/><rect x="12" y="10" width="1" height="1" fill="url(#black)"/><rect x="14" y="10" width="1" height="1" fill="url(#black)"/><rect x="16" y="10" width="1" height="1" fill="url(#black)"/><rect x="18" y="10" width="1" height="1" fill="url(#black)"/><rect x="20" y="10" width="1" height="1" fill="url(#black)"/><rect x="22" y="10" width="1" height="1" fill="url(#black)"/><rect x="24" y="10" width="1" height="1" fill="url(#black)"/><rect x="26" y="10" width="1" height="1" fill="url(#black)"/><rect x="27" y="10" width="1" height="1" fill="url(#black)"/><rect x="28" y="10" width="1" height="1" fill="url(#black)"/><rect x="29" y="10" width="1" height="1" fill="url(#black)"/><rect x="30" y="10" width="1" height="1" fill="url(#black)"/><rect x="31" y="10" width="1" height="1" fill="url(#black)"/><rect x="32" y="10" width="1" height="1" fill="url(#black)"/><rect x="12" y="11" width="1" height="1" fill="url(#black)"/><rect x="13" y="11" width="1" height="1" fill="url(#black)"/><rect x="16" y="11" width="1" height="1" fill="url(#black)"/><rect x="20" y="11" width="1" height="1" fill="url(#black)"/><rect x="21" y="11" width="1" height="1" fill="url(#black)"/><rect x="22" y="11" width="1" height="1" fill="url(#black)"/><rect x="4" y="12" width="1" height="1" fill="url(#black)"/><rect x="5" y="12" width="1" height="1" fill="url(#black)"/><rect x="7" y="12" width="1" height="1" fill="url(#black)"/><rect x="10" y="12" width="1" height="1" fill="url(#black)"/><rect x="11" y="12" width="1" height="1" fill="url(#black)"/><rect x="14" y="12" width="1" height="1" fill="url(#black)"/><rect x="17" y="12" width="1" height="1" fill="url(#black)"/><rect x="18" y="12" width="1" height="1" fill="url(#black)"/><rect x="23" y="12" width="1" height="1" fill="url(#black)"/><rect x="24" y="12" width="1" height="1" fill="url(#black)"/><rect x="26" y="12" width="1" height="1" fill="url(#black)"/><rect x="27" y="12" width="1" height="1" fill="url(#black)"/><rect x="28" y="12" width="1" height="1" fill="url(#black)"/><rect x="30" y="12" width="1" height="1" fill="url(#black)"/><rect x="31" y="12" width="1" height="1" fill="url(#black)"/><rect x="4" y="13" width="1" height="1" fill="url(#black)"/><rect x="5" y="13" width="1" height="1" fill="url(#black)"/><rect x="6" y="13" width="1" height="1" fill="url(#black)"/><rect x="12" y="13" width="1" height="1" fill="url(#black)"/><rect x="14" y="13" width="1" height="1" fill="url(#black)"/><rect x="15" y="13" width="1" height="1" fill="url(#black)"/><rect x="20" y="13" width="1" height="1" fill="url(#black)"/><rect x="25" y="13" width="1" height="1" fill="url(#black)"/><rect x="26" y="13" width="1" height="1" fill="url(#black)"/><rect x="29" y="13" width="1" height="1" fill="url(#black)"/><rect x="32" y="13" width="1" height="1" fill="url(#black)"/><rect x="4" y="14" width="1" height="1" fill="url(#black)"/><rect x="6" y="14" width="1" height="1" fill="url(#black)"/><rect x="7" y="14" width="1" height="1" fill="url(#black)"/><rect x="8" y="14" width="1" height="1" fill="url(#black)"/><rect x="9" y="14" width="1" height="1" fill="url(#black)"/><rect x="10" y="14" width="1" height="1" fill="url(#black)"/><rect x="12" y="14" width="1" height="1" fill="url(#black)"/><rect x="13" y="14" width="1" height="1" fill="url(#black)"/><rect x="14" y="14" width="1" height="1" fill="url(#black)"/><rect x="18" y="14" width="1" height="1" fill="url(#black)"/><rect x="20" y="14" width="1" height="1" fill="url(#black)"/><rect x="23" y="14" width="1" height="1" fill="url(#black)"/><rect x="24" y="14" width="1" height="1" fill="url(#black)"/><rect x="27" y="14" width="1" height="1" fill="url(#black)"/><rect x="28" y="14" width="1" height="1" fill="url(#black)"/><rect x="30" y="14" width="1" height="1" fill="url(#black)"/><rect x="31" y="14" width="1" height="1" fill="url(#black)"/><rect x="4" y="15" width="1" height="1" fill="url(#black)"/><rect x="5" y="15" width="1" height="1" fill="url(#black)"/><rect x="6" y="15" width="1" height="1" fill="url(#black)"/><rect x="8" y="15" width="1" height="1" fill="url(#black)"/><rect x="9" y="15" width="1" height="1" fill="url(#black)"/><rect x="17" y="15" width="1" height="1" fill="url(#black)"/><rect x="18" y="15" width="1" height="1" fill="url(#black)"/><rect x="19" y="15" width="1" height="1" fill="url(#black)"/><rect x="22" y="15" width="1" height="1" fill="url(#black)"/><rect x="24" y="15" width="1" height="1" fill="url(#black)"/><rect x="27" y="15" width="1" height="1" fill="url(#black)"/><rect x="30" y="15" width="1" height="1" fill="url(#black)"/><rect x="5" y="16" width="1" height="1" fill="url(#black)"/><rect x="7" y="16" width="1" height="1" fill="url(#black)"/><rect x="8" y="16" width="1" height="1" fill="url(#black)"/><rect x="9" y="16" width="1" height="1" fill="url(#black)"/><rect x="10" y="16" width="1" height="1" fill="url(#black)"/><rect x="11" y="16" width="1" height="1" fill="url(#black)"/><rect x="12" y="16" width="1" height="1" fill="url(#black)"/><rect x="16" y="16" width="1" height="1" fill="url(#black)"/><rect x="17" y="16" width="1" height="1" fill="url(#black)"/><rect x="18" y="16" width="1" height="1" fill="url(#black)"/><rect x="19" y="16" width="1" height="1" fill="url(#black)"/><rect x="21" y="16" width="1" height="1" fill="url(#black)"/><rect x="26" y="16" width="1" height="1" fill="url(#black)"/><rect x="27" y="16" width="1" height="1" fill="url(#black)"/><rect x="29" y="16" width="1" height="1" fill="url(#black)"/><rect x="32" y="16" width="1" height="1" fill="url(#black)"/><rect x="4" y="17" width="1" height="1" fill="url(#black)"/><rect x="6" y="17" width="1" height="1" fill="url(#black)"/><rect x="7" y="17" width="1" height="1" fill="url(#black)"/><rect x="9" y="17" width="1" height="1" fill="url(#black)"/><rect x="11" y="17" width="1" height="1" fill="url(#black)"/><rect x="13" y="17" width="1" height="1" fill="url(#black)"/><rect x="14" y="17" width="1" height="1" fill="url(#black)"/><rect x="15" y="17" width="1" height="1" fill="url(#black)"/><rect x="16" y="17" width="1" height="1" fill="url(#black)"/><rect x="18" y="17" width="1" height="1" fill="url(#black)"/><rect x="21" y="17" width="1" height="1" fill="url(#black)"/><rect x="22" y="17" width="1" height="1" fill="url(#black)"/><rect x="23" y="17" width="1" height="1" fill="url(#black)"/><rect x="27" y="17" width="1" height="1" fill="url(#black)"/><rect x="29" y="17" width="1" height="1" fill="url(#black)"/><rect x="4" y="18" width="1" height="1" fill="url(#black)"/><rect x="6" y="18" width="1" height="1" fill="url(#black)"/><rect x="9" y="18" width="1" height="1" fill="url(#black)"/><rect x="10" y="18" width="1" height="1" fill="url(#black)"/><rect x="11" y="18" width="1" height="1" fill="url(#black)"/><rect x="12" y="18" width="1" height="1" fill="url(#black)"/><rect x="13" y="18" width="1" height="1" fill="url(#black)"/><rect x="16" y="18" width="1" height="1" fill="url(#black)"/><rect x="18" y="18" width="1" height="1" fill="url(#black)"/><rect x="20" y="18" width="1" height="1" fill="url(#black)"/><rect x="21" y="18" width="1" height="1" fill="url(#black)"/><rect x="24" y="18" width="1" height="1" fill="url(#black)"/><rect x="26" y="18" width="1" height="1" fill="url(#black)"/><rect x="27" y="18" width="1" height="1" fill="url(#black)"/><rect x="29" y="18" width="1" height="1" fill="url(#black)"/><rect x="32" y="18" width="1" height="1" fill="url(#black)"/><rect x="5" y="19" width="1" height="1" fill="url(#black)"/><rect x="7" y="19" width="1" height="1" fill="url(#black)"/><rect x="8" y="19" width="1" height="1" fill="url(#black)"/><rect x="14" y="19" width="1" height="1" fill="url(#black)"/><rect x="16" y="19" width="1" height="1" fill="url(#black)"/><rect x="17" y="19" width="1" height="1" fill="url(#black)"/><rect x="20" y="19" width="1" height="1" fill="url(#black)"/><rect x="21" y="19" width="1" height="1" fill="url(#black)"/><rect x="24" y="19" width="1" height="1" fill="url(#black)"/><rect x="25" y="19" width="1" height="1" fill="url(#black)"/><rect x="26" y="19" width="1" height="1" fill="url(#black)"/><rect x="29" y="19" width="1" height="1" fill="url(#black)"/><rect x="32" y="19" width="1" height="1" fill="url(#black)"/><rect x="4" y="20" width="1" height="1" fill="url(#black)"/><rect x="5" y="20" width="1" height="1" fill="url(#black)"/><rect x="7" y="20" width="1" height="1" fill="url(#black)"/><rect x="8" y="20" width="1" height="1" fill="url(#black)"/><rect x="9" y="20" width="1" height="1" fill="url(#black)"/><rect x="10" y="20" width="1" height="1" fill="url(#black)"/><rect x="12" y="20" width="1" height="1" fill="url(#black)"/><rect x="15" y="20" width="1" height="1" fill="url(#black)"/><rect x="19" y="20" width="1" height="1" fill="url(#black)"/><rect x="21" y="20" width="1" height="1" fill="url(#black)"/><rect x="22" y="20" width="1" height="1" fill="url(#black)"/><rect x="23" y="20" width="1" height="1" fill="url(#black)"/><rect x="25" y="20" width="1" height="1" fill="url(#black)"/><rect x="27" y="20" width="1" height="1" fill="url(#black)"/><rect x="5" y="21" width="1" height="1" fill="url(#black)"/><rect x="6" y="21" width="1" height="1" fill="url(#black)"/><rect x="8" y="21" width="1" height="1" fill="url(#black)"/><rect x="9" y="21" width="1" height="1" fill="url(#black)"/><rect x="13" y="21" width="1" height="1" fill="url(#black)"/><rect x="14" y="21" width="1" height="1" fill="url(#black)"/><rect x="17" y="21" width="1" height="1" fill="url(#black)"/><rect x="18" y="21" width="1" height="1" fill="url(#black)"/><rect x="20" y="21" width="1" height="1" fill="url(#black)"/><rect x="22" y="21" width="1" height="1" fill="url(#black)"/><rect x="26" y="21" width="1" height="1" fill="url(#black)"/><rect x="29" y="21" width="1" height="1" fill="url(#black)"/><rect x="30" y="21" width="1" height="1" fill="url(#black)"/><rect x="31" y="21" width="1" height="1" fill="url(#black)"/><rect x="32" y="21" width="1" height="1" fill="url(#black)"/><rect x="4" y="22" width="1" height="1" fill="url(#black)"/><rect x="6" y="22" width="1" height="1" fill="url(#black)"/><rect x="7" y="22" width="1" height="1" fill="url(#black)"/><rect x="10" y="22" width="1" height="1" fill="url(#black)"/><rect x="11" y="22" width="1" height="1" fill="url(#black)"/><rect x="17" y="22" width="1" height="1" fill="url(#black)"/><rect x="18" y="22" width="1" height="1" fill="url(#black)"/><rect x="24" y="22" width="1" height="1" fill="url(#black)"/><rect x="25" y="22" width="1" height="1" fill="url(#black)"/><rect x="26" y="22" width="1" height="1" fill="url(#black)"/><rect x="27" y="22" width="1" height="1" fill="url(#black)"/><rect x="30" y="22" width="1" height="1" fill="url(#black)"/><rect x="31" y="22" width="1" height="1" fill="url(#black)"/><rect x="32" y="22" width="1" height="1" fill="url(#black)"/><rect x="7" y="23" width="1" height="1" fill="url(#black)"/><rect x="11" y="23" width="1" height="1" fill="url(#black)"/><rect x="12" y="23" width="1" height="1" fill="url(#black)"/><rect x="15" y="23" width="1" height="1" fill="url(#black)"/><rect x="18" y="23" width="1" height="1" fill="url(#black)"/><rect x="20" y="23" width="1" height="1" fill="url(#black)"/><rect x="21" y="23" width="1" height="1" fill="url(#black)"/><rect x="22" y="23" width="1" height="1" fill="url(#black)"/><rect x="24" y="23" width="1" height="1" fill="url(#black)"/><rect x="26" y="23" width="1" height="1" fill="url(#black)"/><rect x="27" y="23" width="1" height="1" fill="url(#black)"/><rect x="31" y="23" width="1" height="1" fill="url(#black)"/><rect x="4" y="24" width="1" height="1" fill="url(#black)"/><rect x="6" y="24" width="1" height="1" fill="url(#black)"/><rect x="7" y="24" width="1" height="1" fill="url(#black)"/><rect x="9" y="24" width="1" height="1" fill="url(#black)"/><rect x="10" y="24" width="1" height="1" fill="url(#black)"/><rect x="13" y="24" width="1" height="1" fill="url(#black)"/><rect x="14" y="24" width="1" height="1" fill="url(#black)"/><rect x="15" y="24" width="1" height="1" fill="url(#black)"/><rect x="16" y="24" width="1" height="1" fill="url(#black)"/><rect x="17" y="24" width="1" height="1" fill="url(#black)"/><rect x="18" y="24" width="1" height="1" fill="url(#black)"/><rect x="24" y="24" width="1" height="1" fill="url(#black)"/><rect x="25" y="24" width="1" height="1" fill="url(#black)"/><rect x="26" y="24" width="1" height="1" fill="url(#black)"/><rect x="27" y="24" width="1" height="1" fill="url(#black)"/><rect x="28" y="24" width="1" height="1" fill="url(#black)"/><rect x="29" y="24" width="1" height="1" fill="url(#black)"/><rect x="30" y="24" width="1" height="1" fill="url(#black)"/><rect x="32" y="24" width="1" height="1" fill="url(#black)"/><rect x="12" y="25" width="1" height="1" fill="url(#black)"/><rect x="14" y="25" width="1" height="1" fill="url(#black)"/><rect x="15" y="25" width="1" height="1" fill="url(#black)"/><rect x="16" y="25" width="1" height="1" fill="url(#black)"/><rect x="17" y="25" width="1" height="1" fill="url(#black)"/><rect x="18" y="25" width="1" height="1" fill="url(#black)"/><rect x="22" y="25" width="1" height="1" fill="url(#black)"/><rect x="23" y="25" width="1" height="1" fill="url(#black)"/><rect x="24" y="25" width="1" height="1" fill="url(#black)"/><rect x="28" y="25" width="1" height="1" fill="url(#black)"/><rect x="31" y="25" width="1" height="1" fill="url(#black)"/><rect x="32" y="25" width="1" height="1" fill="url(#black)"/><rect x="4" y="26" width="1" height="1" fill="url(#black)"/><rect x="5" y="26" width="1" height="1" fill="url(#black)"/><rect x="6" y="26" width="1" height="1" fill="url(#black)"/><rect x="7" y="26" width="1" height="1" fill="url(#black)"/><rect x="8" y="26" width="1" height="1" fill="url(#black)"/><rect x="9" y="26" width="1" height="1" fill="url(#black)"/><rect x="10" y="26" width="1" height="1" fill="url(#black)"/><rect x="12" y="26" width="1" height="1" fill="url(#black)"/><rect x="13" y="26" width="1" height="1" fill="url(#black)"/><rect x="14" y="26" width="1" height="1" fill="url(#black)"/><rect x="15" y="26" width="1" height="1" fill="url(#black)"/><rect x="16" y="26" width="1" height="1" fill="url(#black)"/><rect x="17" y="26" width="1" height="1" fill="url(#black)"/><rect x="18" y="26" width="1" height="1" fill="url(#black)"/><rect x="22" y="26" width="1" height="1" fill="url(#black)"/><rect x="24" y="26" width="1" height="1" fill="url(#black)"/><rect x="26" y="26" width="1" height="1" fill="url(#black)"/><rect x="28" y="26" width="1" height="1" fill="url(#black)"/><rect x="31" y="26" width="1" height="1" fill="url(#black)"/><rect x="4" y="27" width="1" height="1" fill="url(#black)"/><rect x="10" y="27" width="1" height="1" fill="url(#black)"/><rect x="14" y="27" width="1" height="1" fill="url(#black)"/><rect x="15" y="27" width="1" height="1" fill="url(#black)"/><rect x="16" y="27" width="1" height="1" fill="url(#black)"/><rect x="17" y="27" width="1" height="1" fill="url(#black)"/><rect x="18" y="27" width="1" height="1" fill="url(#black)"/><rect x="20" y="27" width="1" height="1" fill="url(#black)"/><rect x="22" y="27" width="1" height="1" fill="url(#black)"/><rect x="24" y="27" width="1" height="1" fill="url(#black)"/><rect x="28" y="27" width="1" height="1" fill="url(#black)"/><rect x="30" y="27" width="1" height="1" fill="url(#black)"/><rect x="31" y="27" width="1" height="1" fill="url(#black)"/><rect x="32" y="27" width="1" height="1" fill="url(#black)"/><rect x="4" y="28" width="1" height="1" fill="url(#black)"/><rect x="6" y="28" width="1" height="1" fill="url(#black)"/><rect x="7" y="28" width="1" height="1" fill="url(#black)"/><rect x="8" y="28" width="1" height="1" fill="url(#black)"/><rect x="10" y="28" width="1" height="1" fill="url(#black)"/><rect x="13" y="28" width="1" height="1" fill="url(#black)"/><rect x="14" y="28" width="1" height="1" fill="url(#black)"/><rect x="15" y="28" width="1" height="1" fill="url(#black)"/><rect x="18" y="28" width="1" height="1" fill="url(#black)"/><rect x="21" y="28" width="1" height="1" fill="url(#black)"/><rect x="24" y="28" width="1" height="1" fill="url(#black)"/><rect x="25" y="28" width="1" height="1" fill="url(#black)"/><rect x="26" y="28" width="1" height="1" fill="url(#black)"/><rect x="27" y="28" width="1" height="1" fill="url(#black)"/><rect x="28" y="28" width="1" height="1" fill="url(#black)"/><rect x="29" y="28" width="1" height="1" fill="url(#black)"/><rect x="4" y="29" width="1" height="1" fill="url(#black)"/><rect x="6" y="29" width="1" height="1" fill="url(#black)"/><rect x="7" y="29" width="1" height="1" fill="url(#black)"/><rect x="8" y="29" width="1" height="1" fill="url(#black)"/><rect x="10" y="29" width="1" height="1" fill="url(#black)"/><rect x="12" y="29" width="1" height="1" fill="url(#black)"/><rect x="13" y="29" width="1" height="1" fill="url(#black)"/><rect x="15" y="29" width="1" height="1" fill="url(#black)"/><rect x="17" y="29" width="1" height="1" fill="url(#black)"/><rect x="20" y="29" width="1" height="1" fill="url(#black)"/><rect x="21" y="29" width="1" height="1" fill="url(#black)"/><rect x="25" y="29" width="1" height="1" fill="url(#black)"/><rect x="26" y="29" width="1" height="1" fill="url(#black)"/><rect x="27" y="29" width="1" height="1" fill="url(#black)"/><rect x="28" y="29" width="1" height="1" fill="url(#black)"/><rect x="30" y="29" width="1" height="1" fill="url(#black)"/><rect x="31" y="29" width="1" height="1" fill="url(#black)"/><rect x="4" y="30" width="1" height="1" fill="url(#black)"/><rect x="6" y="30" width="1" height="1" fill="url(#black)"/><rect x="7" y="30" width="1" height="1" fill="url(#black)"/><rect x="8" y="30" width="1" height="1" fill="url(#black)"/><rect x="10" y="30" width="1" height="1" fill="url(#black)"/><rect x="13" y="30" width="1" height="1" fill="url(#black)"/><rect x="15" y="30" width="1" height="1" fill="url(#black)"/><rect x="17" y="30" width="1" height="1" fill="url(#black)"/><rect x="18" y="30" width="1" height="1" fill="url(#black)"/><rect x="20" y="30" width="1" height="1" fill="url(#black)"/><rect x="25" y="30" width="1" height="1" fill="url(#black)"/><rect x="28" y="30" width="1" height="1" fill="url(#black)"/><rect x="30" y="30" width="1" height="1" fill="url(#black)"/><rect x="32" y="30" width="1" height="1" fill="url(#black)"/><rect x="4" y="31" width="1" height="1" fill="url(#black)"/><rect x="10" y="31" width="1" height="1" fill="url(#black)"/><rect x="12" y="31" width="1" height="1" fill="url(#black)"/><rect x="15" y="31" width="1" height="1" fill="url(#black)"/><rect x="19" y="31" width="1" height="1" fill="url(#black)"/><rect x="21" y="31" width="1" height="1" fill="url(#black)"/><rect x="22" y="31" width="1" height="1" fill="url(#black)"/><rect x="24" y="31" width="1" height="1" fill="url(#black)"/><rect x="31" y="31" width="1" height="1" fill="url(#black)"/><rect x="4" y="32" width="1" height="1" fill="url(#black)"/><rect x="5" y="32" width="1" height="1" fill="url(#black)"/><rect x="6" y="32" width="1" height="1" fill="url(#black)"/><rect x="7" y="32" width="1" height="1" fill="url(#black)"/><rect x="8" y="32" width="1" height="1" fill="url(#black)"/><rect x="9" y="32" width="1" height="1" fill="url(#black)"/><rect x="10" y="32" width="1" height="1" fill="url(#black)"/><rect x="12" y="32" width="1" height="1" fill="url(#black)"/><rect x="13" y="32" width="1" height="1" fill="url(#black)"/><rect x="16" y="32" width="1" height="1" fill="url(#black)"/><rect x="17" y="32" width="1" height="1" fill="url(#black)"/><rect x="19" y="32" width="1" height="1" fill="url(#black)"/><rect x="20" y="32" width="1" height="1" fill="url(#black)"/><rect x="21" y="32" width="1" height="1" fill="url(#black)"/><rect x="22" y="32" width="1" height="1" fill="url(#black)"/><rect x="24" y="32" width="1" height="1" fill="url(#black)"/><rect x="26" y="32" width="1" height="1" fill="url(#black)"/><rect x="31" y="32" width="1" height="1" fill="url(#black)"/><defs>
			<linearGradient id="black" x1="0" x2="0" y1="0" y2="1">
				<stop offset="0%" stop-color="#000"/>
				<stop offset="100%" stop-color="#000"/>
			</linearGradient>
			<linearGradient id="navyBlue" x1="0" x2="0" y1="0" y2="1">
				<stop offset="0%" stop-color="#00379c"/>
				<stop offset="100%" stop-color="#00379c"/>
			</linearGradient>
			<linearGradient id="midnightGreen" x1="0" x2="0" y1="0" y2="1" gradientUnits="userSpaceOnUse" gradientTransform="scale(25, 25)">
				<stop offset="0%" stop-color="#008000"/>
				<stop offset="100%" stop-color="#008000"/>
			</linearGradient>
			<linearGradient id="holo" x1="0" x2="0" y1="0" y2="1" gradientUnits="userSpaceOnUse" gradientTransform="scale(25, 25)">
				<stop offset="0%" stop-color="#ae00ff"/>
				<stop offset="100%" stop-color="#009dff"/>
			</linearGradient>
			<linearGradient id="gradient" x1="0" x2="0" y1="0" y2="1" gradientUnits="userSpaceOnUse" gradientTransform="scale(25, 25)">
				<stop offset="0%" stop-color="#d85bc6"/>
				<stop offset="100%" stop-color="#5c4cff"/>
			</linearGradient>
			<linearGradient id="neon" x1="0" x2="0" y1="0" y2="1" gradientUnits="userSpaceOnUse" gradientTransform="scale(25, 25)">
				<stop offset="0%" stop-color="#00c400"/>
				<stop offset="100%" stop-color="#00612a"/>
			</linearGradient>
		</defs></g></g></svg>